<?xml version="1.0"?>
<svg xmlns:rdf="http://www.w3.org/1999/02/22-rdf-syntax-ns#" xmlns="http://www.w3.org/2000/svg" xmlns:cc="http://creativecommons.org/ns#" xmlns:xlink="http://www.w3.org/1999/xlink" xmlns:dc="http://purl.org/dc/elements/1.1/" xmlns:svg="http://www.w3.org/2000/svg" id="svg2" viewBox="0 0 510.97 679.59" version="1.1">
  <defs id="defs4">
    <linearGradient id="linearGradient3731">
      <stop id="stop3733" stop-color="#555753" offset="0"/>
      <stop id="stop3735" stop-color="#babdb6" offset="1"/>
    </linearGradient>
    <linearGradient id="linearGradient3647">
      <stop id="stop3649" stop-color="#2e3436" offset="0"/>
      <stop id="stop3657" stop-color="#888a85" offset=".58776"/>
      <stop id="stop3655" stop-color="#babdb6" offset=".79379"/>
      <stop id="stop3651" stop-color="#2e3436" offset="1"/>
    </linearGradient>
    <linearGradient id="linearGradient2829">
      <stop id="stop2831" stop-color="#babdb6" offset="0"/>
      <stop id="stop3609" stop-color="#eeeeec" offset=".19272"/>
      <stop id="stop2833" stop-color="#888a85" offset="1"/>
    </linearGradient>
    <linearGradient id="linearGradient2835" x1="155.7" xlink:href="#linearGradient2829" gradientUnits="userSpaceOnUse" y1="157.82" gradientTransform="matrix(2.943 0 0 .99684 -23.486 -24.631)" x2="160.55" y2="157.82"/>
    <linearGradient id="linearGradient3631" x1="155.7" xlink:href="#linearGradient2829" gradientUnits="userSpaceOnUse" y1="157.82" gradientTransform="matrix(2.943 0 0 1.0859 -40.788 -161.81)" x2="160.55" y2="157.82"/>
    <linearGradient id="linearGradient3635" x1="155.7" xlink:href="#linearGradient2829" gradientUnits="userSpaceOnUse" y1="157.82" gradientTransform="matrix(2.943 0 0 1.0859 -49.733 111.15)" x2="160.55" y2="157.82"/>
    <linearGradient id="linearGradient3668" x1="221" xlink:href="#linearGradient3647" gradientUnits="userSpaceOnUse" y1="687.36" gradientTransform="matrix(-.95106 .30902 .30902 .95106 645.5 -42.696)" x2="209" y2="687.36"/>
    <linearGradient id="linearGradient3670" x1="221" xlink:href="#linearGradient3647" gradientUnits="userSpaceOnUse" y1="687.36" gradientTransform="matrix(.95106 .30902 -.30902 .95106 230.53 -42.696)" x2="209" y2="687.36"/>
    <linearGradient id="linearGradient3674" x1="221" xlink:href="#linearGradient3647" gradientUnits="userSpaceOnUse" y1="687.36" gradientTransform="translate(223.79 -35.211)" x2="209" y2="687.36"/>
    <filter id="filter3711" color-interpolation-filters="sRGB">
      <feGaussianBlur id="feGaussianBlur3713" stdDeviation="2.4432187"/>
    </filter>
    <linearGradient id="linearGradient3717" x1="221" xlink:href="#linearGradient3647" gradientUnits="userSpaceOnUse" y1="687.36" gradientTransform="translate(205.99 -333.52)" x2="209" y2="687.36"/>
    <linearGradient id="linearGradient3721" x1="221" xlink:href="#linearGradient3647" gradientUnits="userSpaceOnUse" y1="687.36" gradientTransform="translate(197.69 -62.638)" x2="209" y2="687.36"/>
    <linearGradient id="linearGradient3737" x1="912.87" xlink:href="#linearGradient3731" gradientUnits="userSpaceOnUse" y1="632.36" gradientTransform="translate(-379.63 -724.01)" x2="930.37" y2="632.36"/>
    <linearGradient id="linearGradient3745" x1="912.87" xlink:href="#linearGradient3731" gradientUnits="userSpaceOnUse" y1="632.36" gradientTransform="translate(-801.42 45.168)" x2="930.37" y2="632.36"/>
    <linearGradient id="linearGradient3800" y2="356.36" gradientUnits="userSpaceOnUse" y1="61.032" x2="534" x1="256">
      <stop id="stop3796" stop-color="#eeeeec" offset="0"/>
      <stop id="stop3798" stop-color="#faf7f6" offset="1"/>
    </linearGradient>
    <linearGradient id="linearGradient3831" x1="1208.9" gradientUnits="userSpaceOnUse" y1="406.84" gradientTransform="translate(-528.25 5)" x2="726.24" y2="57.032">
      <stop id="stop3814" stop-color="#2e3436" offset="0"/>
      <stop id="stop3816" stop-color="#eeeeec" offset="1"/>
    </linearGradient>
    <filter id="filter5593" color-interpolation-filters="sRGB">
      <feGaussianBlur id="feGaussianBlur5595" stdDeviation="2.2809029"/>
    </filter>
  </defs>
  <g id="layer1" transform="translate(-197.24 -7.375)">
    <path id="rect3833" filter="url(#filter5593)" transform="matrix(1 0 -.35983 .82008 244.29 125.14)" fill="#eeeeec" d="m434.78 545.41-6 3.3904h2.9063l-12.156 7.3458h-95v-0.0553c-12.96-0.2-22.13 1.09-24.53 3.65l-100 61.567c0 1.9774 8.2202 3.593 18.281 3.593h87.594l-13.469 8.1442-1.2188-0.0798-7.7188 4.674 1.2188 0.0798-60.781 36.759-1.1562-0.0737-7.5312 4.5696h12.594l6.3438-3.8387-0.71875-0.0491 60.781-36.759 0.65625 0.043 2.875-1.732 108.06-11.737h29.75v44.775h-0.7813v4.9136h12v-4.9136h-1.2187v-44.775h25.312l112.78 12.241 2.0313 1.2284 0.625-0.043 60.719 36.735-1.1562 0.0737 6.3438 3.8387h12.594l-7.5313-4.5696-0.75 0.0491-60.719-36.729 1.3125-0.086-7.75-4.674-1.2812 0.0798-13.031-8.1442h89.312c8.2856 0 15.306-1.0946 17.531-2.5858 0.089-0.0559 0.1437-0.11493 0.2188-0.17197 0.046-0.0373 0.1168-0.0728 0.1562-0.11056l-99.51-62.35c0-1.9774-8.2202-3.593-18.281-3.593l-103.5 0.0553-12.125-7.3273 3.4687-0.006-0.031-0.0123h0.5l-6-3.3904-12-0.00001v0.00003zm0.7813 7.3949v3.3412h-5.5313l5.5313-3.3412zm10 0.39308 4.875 2.9481h-4.875v-2.9481zm-128.62 71.701h68.219l-82.844 8.9918 0.3125-0.19655-0.6875-0.043 15-8.7523v-0.00002zm174.59 0h72.563l14.5 8.7584-0.625 0.0368 1.1562 0.70632-87.594-9.5016v0.00002z"/>
    <rect id="rect3743" transform="matrix(-.48331 .87545 .87545 .48331 0 0)" height="178.08" width="10" y="562.84" x="123.95" fill="url(#linearGradient3745)"/>
    <rect id="rect3727" transform="rotate(61.098)" height="178.08" width="10" y="-206.33" x="545.74" fill="url(#linearGradient3737)"/>
    <rect id="rect2827" height="632.39" width="10" y="15.904" x="433.57" fill="url(#linearGradient2835)"/>
    <rect id="rect3637" opacity=".3" height="647.68" width="10" y="16.611" x="433.57" fill="#555753"/>
    <rect id="rect3629" transform="rotate(18)" height="688.87" width="10" y="-117.65" x="416.27" fill="url(#linearGradient3631)"/>
    <rect id="rect3633" transform="rotate(-18)" height="688.87" width="10" y="155.3" x="407.33" fill="url(#linearGradient3635)"/>
    <rect id="rect3689" stroke-linejoin="round" ry="14.286" height="341.8" width="474.66" stroke="#888a85" y="65.032" x="201.24" stroke-width="8" fill="url(#linearGradient3800)"/>
    <rect id="rect2834" stroke-linejoin="round" ry="14.286" height="341.8" width="474.66" stroke="#888a85" y="65.032" x="201.24" stroke-width="8" fill="none"/>
    <path id="rect3684" filter="url(#filter3711)" fill="#d3d7cf" d="m217.53 67.031c-7.9143 0-14.281 6.367-14.281 14.281v313.25c0 6.0409 3.7231 11.154 9 13.25-0.6412-1.6269-1-3.39-1-5.25v-313.25c0-7.9143 6.367-14.281 14.281-14.281h446.09c1.8629 0 3.621 0.38817 5.25 1.0312-2.0889-5.2914-7.1986-9.0312-13.25-9.0312h-446.09z"/>
    <path id="rect3659" d="m220.76 663.71-7.5312 23.25h12.594l6.3438-19.531-11.406-3.7188z" fill="url(#linearGradient3670)"/>
    <path id="path3666" d="m655.27 663.71 7.5312 23.25h-12.594l-6.3438-19.531 11.406-3.7188z" fill="url(#linearGradient3668)"/>
    <rect id="rect3672" height="25" width="12" y="639.65" x="432.79" fill="url(#linearGradient3674)"/>
    <path id="path3676" opacity=".25" d="m304.25 411.11 11-0.25-6.5 19.5-10.75 0.25 6.25-19.5z" fill="#555753"/>
    <path id="path3678" opacity=".25" fill="#555753" d="m572.75 410.86-11-0.25 6.5 19.5 10.75 0.25-6.25-19.5z"/>
    <rect id="rect3680" opacity=".25" height="23.25" width="9.5" y="410.86" x="433.75" fill="#555753"/>
    <rect id="rect3715" transform="rotate(18)" height="25" width="12" y="341.34" x="414.99" fill="url(#linearGradient3717)"/>
    <rect id="rect3719" transform="rotate(-18)" height="25" width="12" y="612.22" x="406.69" fill="url(#linearGradient3721)"/>
    <path id="rect3749" fill="#555753" d="m432.79 7.4017h12l6 17.25h-24l6-17.25z"/>
    <path id="path3772" d="m433.56 7.375-6 17.25h0.65625l6-17.219h1.3438v-0.03125h-2z" fill="#eeeeec"/>
    <path id="path3787" d="m444.32 7.4532 6 17.25h-2l-6-17.25h2z" fill="#2e3436"/>
    <path id="path3790" opacity=".7" fill="#2e3436" d="m442.46 7.4532 6 17.25-3.0607 0.08839-4.9393-17.338h2z"/>
    <path id="path3792" opacity=".4" fill="#2e3436" d="m440.43 7.4532 5.0277 17.338-3.2374 0.08839-3.1716-17.338 1.3813-0.088388z"/>
    <path id="rect3802" opacity=".62782" style="block-progression:tb;color:#000000;text-transform:none;text-indent:0" fill="url(#linearGradient3831)" d="m216.28 62.031c-10.06 0-18.28 8.22-18.28 18.281v313.25c0 10.061 8.2202 18.281 18.281 18.281h446.09c10.061 0 18.281-8.2202 18.281-18.281v-313.25c0-10.061-8.2201-18.281-18.281-18.281h-446.09zm2.7812 2.1875h440.53c9.9359 0 18.062 8.0952 18.062 18.031v309.38c0 9.936-8.1265 18.031-18.062 18.031h-440.53c-9.93 0-18.06-8.1-18.06-18.04v-309.37c0-9.936 8.1265-18.031 18.062-18.031z"/>
    <path id="rect3610" style="block-progression:tb;color:#000000;text-transform:none;text-indent:0" d="m216.37 61.754c-10.061 0-18.281 8.2202-18.281 18.281v6.625h8v-6.625c0-5.7675 4.5138-10.281 10.281-10.281h6.1562v-8h-6.1562zm439.94 0v8h6.1562c5.7675 0 10.281 4.5138 10.281 10.281v6.625h8v-6.625c0-10.061-8.2202-18.281-18.281-18.281h-6.1562zm-458.22 324.91v6.5938c0 10.061 8.2202 18.281 18.281 18.281h6.1562v-8h-6.1562c-5.7675 0-10.281-4.5138-10.281-10.281v-6.5938h-8zm474.66 0v6.5938c0 5.7675-4.5138 10.281-10.281 10.281h-6.1562v8h6.1562c10.061 0 18.281-8.2202 18.281-18.281v-6.5938h-8z"/>
  </g>
  <metadata>
    <rdf:RDF>
      <cc:Work>
        <dc:format>image/svg+xml</dc:format>
        <dc:type rdf:resource="http://purl.org/dc/dcmitype/StillImage"/>
        <cc:license rdf:resource="http://creativecommons.org/licenses/publicdomain/"/>
        <dc:publisher>
          <cc:Agent rdf:about="http://openclipart.org/">
            <dc:title>Openclipart</dc:title>
          </cc:Agent>
        </dc:publisher>
        <dc:title>white board</dc:title>
        <dc:date>2010-03-18T20:53:20</dc:date>
        <dc:description>board, classroom, clip art, clipart, education, school, white board, </dc:description>
        <dc:source>http://openclipart.org/detail/32389/white-board-by-rg1024</dc:source>
        <dc:creator>
          <cc:Agent>
            <dc:title>rg1024</dc:title>
          </cc:Agent>
        </dc:creator>
        <dc:subject>
          <rdf:Bag>
            <rdf:li>board</rdf:li>
            <rdf:li>classroom</rdf:li>
            <rdf:li>clip art</rdf:li>
            <rdf:li>clipart</rdf:li>
            <rdf:li>education</rdf:li>
            <rdf:li>school</rdf:li>
            <rdf:li>white board</rdf:li>
          </rdf:Bag>
        </dc:subject>
      </cc:Work>
      <cc:License rdf:about="http://creativecommons.org/licenses/publicdomain/">
        <cc:permits rdf:resource="http://creativecommons.org/ns#Reproduction"/>
        <cc:permits rdf:resource="http://creativecommons.org/ns#Distribution"/>
        <cc:permits rdf:resource="http://creativecommons.org/ns#DerivativeWorks"/>
      </cc:License>
    </rdf:RDF>
  </metadata>
</svg>
